# xmcd
#
# Track frame offsets: 
#        182
#        17275
#        27850
#        37337
#        52170
#        67090
#        81110
#        93440
#        106582
#        121975
#
# Disc length: 1780 seconds
#
# Revision: 0
# Processed by: cddbd v1.5.2PL0 Copyright (c) Steve Scherf et al.
# Submitted via: ExactAudioCopy v1.1
#
DISCID=7c06f20a
DTITLE=Paul Robeson - A Man And His Beliefs
DYEAR=1959
DGENRE=Pop
TTITLE0=Mammy
TTITLE1=Nothin"
TTITLE2=The Blind Ploughman
TTITLE3=Snowball
TTITLE4=Old Folks At Home
TTITLE5=Poor Old Joe
TTITLE6=Lonesome Road
TTITLE7=Dear Old Southland
TTITLE8=Sleepy Time Down South
TTITLE9=Loch Lomond
EXTD=
EXTT0=
EXTT1=
EXTT2=
EXTT3=
EXTT4=
EXTT5=
EXTT6=
EXTT7=
EXTT8=
EXTT9=
PLAYORDER=
